<svg width="26" height="37" viewBox="0 0 26 37" fill="none" xmlns="http://www.w3.org/2000/svg">
<path d="M21.975 2.52607C18.56 -0.0351929 13.7194 0.364272 10.8762 0.348606C8.26791 0.340774 3.6545 -0.113517 1.56319 3.22318C-0.535953 6.55988 -0.841425 30.4729 2.65192 33.8879C6.14527 37.3029 14.8395 37.3029 19.5704 32.337C24.1838 27.4965 24.9671 22.5854 20.9881 17.5255C20.8079 17.2984 20.8314 16.9616 21.0507 16.7658C26.5571 11.7999 26.6432 6.02726 21.9672 2.51824L21.975 2.52607ZM15.2859 24.8177C15.0353 25.5931 14.5262 26.2511 13.9544 26.8307C12.7482 28.0369 11.1425 28.922 9.43497 28.969C8.78487 28.9847 8.05643 28.8359 7.67263 28.3111C7.33583 27.8411 7.35933 27.2067 7.39849 26.6349C7.47682 25.5305 7.09302 22.4758 8.36974 22.0528C9.1295 21.7943 10.3984 22.139 11.1816 22.2251C12.1216 22.3269 13.0615 22.4601 13.9936 22.6167C14.3069 22.6716 14.6202 22.7342 14.8786 22.9066C15.4426 23.306 15.4974 24.1519 15.2859 24.8177ZM14.9491 12.0975C14.581 12.5597 14.0327 12.826 13.4844 13.0531C12.9362 13.2803 12.3722 13.4761 11.8004 13.6406C10.7117 13.946 9.47414 14.1184 8.50289 13.5387C8.3854 13.4682 8.26791 13.3821 8.19742 13.2646C8.11909 13.1158 8.11126 12.9435 8.11909 12.779C8.11909 12.0192 7.79796 10.343 8.15826 9.67726C8.50289 9.03498 9.62296 9.11331 10.2652 9.01149C11.1268 8.87833 11.9884 8.74517 12.8578 8.74517C13.3043 8.73734 13.7586 8.77651 14.1737 8.94882C14.7455 9.19163 15.1998 9.71642 15.3486 10.3274C15.4974 10.9383 15.3486 11.6119 14.9491 12.0975Z" fill="#F4CE87"/>
</svg>
