<svg width="41" height="40" viewBox="0 0 41 40" fill="none" xmlns="http://www.w3.org/2000/svg">
<path fill-rule="evenodd" clip-rule="evenodd" d="M35.3882 33.673C33.2949 36.8713 25.4471 39.992 21.2223 39.9999C2.57665 40.0349 -0.415775 24.1515 1.37579 13.4425C3.15694 2.79566 19.4201 0.0925191 21.3976 0.00671279C25.5908 -0.175242 37.1643 3.32113 40.0498 13.021C42.8287 22.3628 38.3581 29.158 35.6869 33.2183C35.5845 33.3739 35.4848 33.5255 35.3882 33.673ZM12.4231 28.4859C10.5842 27.6804 10.3517 16.8365 10.6624 16.8365C11.4517 16.8365 13.7504 17.9949 16.0991 19.1785C18.5523 20.4147 21.0602 21.6785 21.9596 21.6785C23.0031 21.6785 25.7475 19.9775 27.983 18.5919C29.5192 17.6398 30.8152 16.8365 31.1538 16.8365C31.9852 16.8365 31.2027 27.2874 30.6647 28.1024C30.1268 28.9174 14.7216 29.4926 12.4231 28.4859ZM10.6419 14.3639C10.7531 14.6912 20.1019 19.3826 20.7976 19.328C21.4932 19.2734 31.1204 15.0731 31.1204 14.3639C31.1204 13.6548 31.1204 12.0183 30.0352 11.9637C29.9783 11.9609 29.8768 11.9554 29.7355 11.9478C27.1813 11.8097 11.6171 10.9686 11.1426 12.2092C10.8413 12.997 10.7213 13.291 10.6735 13.5963C10.6419 13.7984 10.6419 14.0055 10.6419 14.3639Z" fill="#F4CE87"/>
</svg>
