<svg width="41" height="40" viewBox="0 0 41 40" fill="none" xmlns="http://www.w3.org/2000/svg">
<path fill-rule="evenodd" clip-rule="evenodd" d="M1.44178 24.466C2.23199 28.5867 6.74324 35.645 10.2647 37.0736C10.4272 37.1395 10.5942 37.2077 10.7657 37.2777C15.2387 39.1048 22.725 42.1627 31.3638 37.6583C40.3337 32.9812 41.6161 21.0178 40.6613 16.9613C40.2109 15.0484 34.5503 -0.301015 23.7882 0.00449912C12.9632 0.311799 -2.04571 6.27998 1.44178 24.466ZM12.5503 11.9351C14.3486 11.3643 18.1132 10.7028 21.6331 10.4824C23.3881 10.3726 25.0182 10.3769 26.2728 10.5385C26.902 10.6195 27.3883 10.7342 27.7313 10.8678C28.0314 10.9847 28.1288 11.0798 28.1442 11.0949C28.1457 11.0963 28.1465 11.097 28.1465 11.0969L28.1464 11.0965C28.2365 11.2381 28.3965 11.5975 28.592 12.2335C28.7794 12.8428 28.9726 13.6155 29.1579 14.5052C29.5282 16.2833 29.8545 18.469 30.0408 20.6361C30.228 22.8129 30.2691 24.9157 30.0913 26.5468C30.0021 27.3656 29.8634 28.009 29.6906 28.4651C29.6054 28.6901 29.5221 28.8421 29.4526 28.9388C29.3844 29.0339 29.3446 29.0552 29.3474 29.0536C28.8069 29.3571 27.4477 29.7364 25.5268 30.0009C23.6665 30.257 21.4504 30.3831 19.3164 30.2758C17.1634 30.1675 15.1894 29.8259 13.7578 29.2069C12.316 28.5834 11.703 27.8184 11.6151 26.9744L11.614 26.9639L11.6127 26.9535C11.5886 26.7541 11.5626 26.5422 11.5353 26.3194C11.2618 24.0918 10.8537 20.7668 10.8846 17.7673C10.9017 16.1117 11.0534 14.6531 11.389 13.5741C11.7331 12.4675 12.1698 12.056 12.5503 11.9351ZM30.2353 9.7011C29.8369 9.08336 29.2051 8.72189 28.6265 8.4965C28.0263 8.26265 27.3233 8.11369 26.5871 8.01892C25.1109 7.82888 23.3053 7.83326 21.4794 7.94757C17.8373 8.17557 13.8582 8.85915 11.8046 9.51108C10.2593 10.0017 9.44202 11.4039 9.00503 12.809C8.55944 14.2418 8.4027 15.993 8.38468 17.7407C8.35184 20.9239 8.78203 24.4206 9.05382 26.6299L9.05383 26.6299L9.05384 26.63L9.05384 26.63L9.05385 26.6301C9.08105 26.8512 9.10667 27.0594 9.13007 27.2531C9.36133 29.4232 10.9697 30.7614 12.7786 31.5436C14.6008 32.3316 16.9107 32.6976 19.1928 32.8124C21.4939 32.9281 23.8643 32.7927 25.8626 32.5175C27.8005 32.2507 29.5724 31.829 30.5566 31.2765C31.3136 30.8515 31.7537 30.0906 32.024 29.3771C32.3039 28.6381 32.4749 27.7563 32.5762 26.8263C32.7796 24.9598 32.7254 22.6708 32.5314 20.4151C32.3366 18.1496 31.9958 15.862 31.6038 13.9795C31.4079 13.0388 31.1961 12.1844 30.9785 11.4764C30.7707 10.8005 30.5268 10.1531 30.2353 9.7011ZM17.8496 18.7115C17.3062 19.9287 17.1186 21.2485 17.1186 21.5649V21.6659L17.1028 21.7657C17.0809 21.9047 17.1541 22.3717 17.9881 23.0612C18.7566 23.6964 19.9197 24.2892 21.2544 24.6606C21.9741 24.8609 22.6529 24.562 23.2997 23.5453C23.953 22.5187 24.3283 21.0617 24.3283 19.8938C24.3283 18.9869 23.9115 18.2746 23.1461 17.7415C22.3478 17.1854 21.1765 16.8432 19.8408 16.8432C19.1004 16.8432 18.4176 17.4394 17.8496 18.7115ZM15.5728 17.6625C16.2286 16.1936 17.532 14.3035 19.8408 14.3035C21.5544 14.3035 23.2519 14.7357 24.56 15.6469C25.9011 16.5812 26.8284 18.029 26.8284 19.8938C26.8284 21.4975 26.3411 23.4439 25.3994 24.9239C24.4514 26.4139 22.8031 27.7249 20.5938 27.1101C18.9994 26.6663 17.5031 25.9345 16.4101 25.0311C15.4052 24.2003 14.4358 22.952 14.6202 21.4639C14.644 20.7113 14.9231 19.1175 15.5728 17.6625ZM25.3144 14.4171C25.2438 13.2841 26.4099 12.8509 26.6796 12.8509C27.0168 12.8509 27.8719 13.4005 27.9522 13.8247C28.1193 14.7075 27.7377 15.5917 26.6796 15.6896C26.2903 15.7256 25.3144 15.1882 25.3144 14.4171Z" fill="#F4CE87"/>
</svg>
