<svg width="179" height="40" viewBox="0 0 179 40" fill="none" xmlns="http://www.w3.org/2000/svg">
<path d="M21.975 5.52607C18.56 2.96481 13.7194 3.36427 10.8762 3.34861C8.26791 3.34077 3.6545 2.88648 1.56319 6.22318C-0.535953 9.55988 -0.841425 33.4729 2.65192 36.8879C6.14527 40.3029 14.8395 40.3029 19.5704 35.337C24.1838 30.4965 24.9671 25.5854 20.9881 20.5255C20.8079 20.2984 20.8314 19.9616 21.0507 19.7658C26.5571 14.7999 26.6432 9.02726 21.9672 5.51824L21.975 5.52607ZM15.2859 27.8177C15.0353 28.5931 14.5262 29.2511 13.9544 29.8307C12.7482 31.0369 11.1425 31.922 9.43497 31.969C8.78487 31.9847 8.05643 31.8358 7.67263 31.3111C7.33583 30.8411 7.35933 30.2067 7.39849 29.6349C7.47682 28.5305 7.09302 25.4758 8.36974 25.0528C9.1295 24.7943 10.3984 25.139 11.1816 25.2251C12.1216 25.3269 13.0615 25.4601 13.9936 25.6167C14.3069 25.6716 14.6202 25.7342 14.8786 25.9066C15.4426 26.306 15.4974 27.1519 15.2859 27.8177ZM14.9491 15.0975C14.581 15.5597 14.0327 15.826 13.4844 16.0531C12.9362 16.2803 12.3722 16.4761 11.8004 16.6406C10.7117 16.946 9.47414 17.1184 8.50289 16.5387C8.3854 16.4682 8.26791 16.3821 8.19742 16.2646C8.11909 16.1158 8.11126 15.9435 8.11909 15.779C8.11909 15.0192 7.79796 13.343 8.15826 12.6773C8.50289 12.035 9.62296 12.1133 10.2652 12.0115C11.1268 11.8783 11.9884 11.7452 12.8578 11.7452C13.3043 11.7373 13.7586 11.7765 14.1737 11.9488C14.7455 12.1916 15.1998 12.7164 15.3486 13.3274C15.4974 13.9383 15.3486 14.6119 14.9491 15.0975Z" fill="#F4CE87"/>
<path d="M29.9563 25.7813C29.8858 29.2981 29.8153 39.2847 33.9118 39.2847C39.0187 39.2847 39.2771 24.3792 39.2771 24.3792C39.2771 24.3792 39.8019 12.1838 34.5619 12.1838C30.5281 12.1838 30.0268 22.1939 29.9563 25.7813Z" fill="#F4CE87"/>
<path d="M30.293 8.74524C28.5464 6.6696 32.5253 -2.65122 37.4912 0.732472C42.4571 4.11616 35.4939 14.9252 30.293 8.74524Z" fill="#F4CE87"/>
<path d="M69.135 25.7813C69.0645 29.2981 68.9941 39.2847 73.0905 39.2847C78.1974 39.2847 78.4559 24.3792 78.4559 24.3792C78.4559 24.3792 78.9806 12.1838 73.7406 12.1838C69.7068 12.1838 69.2055 22.1939 69.135 25.7813Z" fill="#F4CE87"/>
<path d="M69.4642 8.74524C67.7175 6.6696 71.6965 -2.65122 76.6624 0.732472C81.6282 4.11616 74.665 14.9252 69.4642 8.74524Z" fill="#F4CE87"/>
<path d="M111.831 25.7813C111.76 29.2981 111.69 39.2847 115.786 39.2847C120.893 39.2847 121.152 24.3792 121.152 24.3792C121.152 24.3792 121.676 12.1838 116.436 12.1838C112.403 12.1838 111.901 22.1939 111.831 25.7813Z" fill="#F4CE87"/>
<path d="M112.16 8.74524C110.413 6.6696 114.392 -2.65122 119.358 0.732472C124.324 4.11616 117.361 14.9252 112.16 8.74524Z" fill="#F4CE87"/>
<path d="M44.0473 21.3087C44.1334 16.9302 43.3658 5.31445 49.2716 5.31445C54.3002 5.31445 54.0573 21.8569 53.8694 26.768C53.8459 27.4964 54.4176 28.0917 55.1461 28.1074C58.0363 28.1544 64.6314 28.8515 64.7645 34.1228C64.9369 40.8824 49.8277 42.1356 44.9872 35.3212C44.0473 34.0053 43.9768 24.8255 44.0473 21.3087Z" fill="#F4CE87"/>
<path d="M83.1007 22.5777C83.1086 18.2619 82.106 5.92554 87.5888 5.92554C92.2336 5.92554 91.3955 15.9826 91.0274 19.0765C90.996 19.3193 91.3093 19.4525 91.4581 19.2567C93.7374 16.3743 102.51 5.90987 106.763 10.163C111.016 14.4161 99.5727 19.664 96.6982 20.8702C96.424 20.9877 96.3692 21.3558 96.6042 21.5438C99.0949 23.4941 109.019 31.9377 102.627 38.3369C96.236 44.7362 92.0613 30.8881 90.949 26.8308C90.9177 26.7055 90.7297 26.7368 90.7375 26.87C90.8864 30.1205 90.9647 39.2925 86.9309 39.2925C82.0277 39.2925 83.1007 26.87 83.1086 22.5855L83.1007 22.5777Z" fill="#F4CE87"/>
<path d="M157.996 15.3325C158.372 0.560147 178.494 -1.56249 178.463 4.24148C178.432 10.0455 169.025 8.32227 168.837 14.0949C168.711 18.0426 178.001 22.3427 178.001 31.1309C178.001 39.9191 156.688 43.9372 156.688 34.1229C156.688 24.3087 167.905 35.149 167.905 30.2928C167.905 25.4366 157.738 25.6167 157.996 15.3403V15.3325Z" fill="#F4CE87"/>
<path d="M147.884 7.26494C144.078 4.00657 131.491 3.09798 128.232 5.91773C124.974 8.7453 125.546 17.4082 125.608 23.4706C125.757 39.4727 131.217 43.7571 143.263 34.9767C155.31 26.1885 151.683 10.5233 147.884 7.26494ZM137.428 27.4809C136.699 27.7707 135.901 27.9587 135.133 27.7942C134.859 26.3374 134.882 24.8492 134.906 23.361C134.921 22.1391 134.945 20.9172 134.968 19.6875C134.984 18.6301 135 17.5727 135.015 16.5074C135.031 15.8417 134.749 14.6198 135.478 14.2908C136.942 13.6407 139.3 14.6981 140.475 15.5284C141.086 15.9591 141.65 16.4761 142.018 17.1262C142.409 17.8155 142.566 18.6144 142.605 19.4055C142.77 22.8127 140.592 26.2042 137.428 27.4809Z" fill="#F4CE87"/>
</svg>
