<svg width="41" height="40" viewBox="0 0 41 40" fill="none" xmlns="http://www.w3.org/2000/svg">
<path fill-rule="evenodd" clip-rule="evenodd" d="M40.9198 20.6528C41.0953 16.4329 38.3146 8.45431 35.2067 6.21944C35.0633 6.11633 34.916 6.00988 34.7648 5.90061C30.8199 3.04964 24.2175 -1.72183 14.7536 0.632302C4.92696 3.07666 0.927734 14.4779 0.927734 18.674C0.927734 20.6528 2.92549 37.0174 13.4967 39.2764C24.1298 41.5487 40.1456 39.2764 40.9198 20.6528ZM11.4312 12.1229C10.9982 14.8246 11.2256 21.1102 15.5989 24.639C21.0656 29.05 25.0709 30.3181 27.5606 29.8219C30.0504 29.3257 31.4577 26.4034 30.8082 25.5212C30.1587 24.639 26.3158 22.9849 25.9369 22.9849C25.7538 22.9849 25.204 23.5774 24.6359 24.1896C24.0285 24.8441 23.4002 25.5212 23.1765 25.5212C22.7435 25.5212 15.5989 19.2907 15.5989 17.4712C15.5989 16.3901 16.65 15.9708 17.4916 15.635C18.0664 15.4057 18.5436 15.2154 18.5216 14.8798C18.4675 14.0527 16.519 9.25581 15.3282 9.25581C14.1375 9.25581 11.579 10.4148 11.4312 12.1229Z" fill="#F4CE87"/>
</svg>
